<?xml version="1.0" encoding="UTF-8"?>
<!DOCTYPE svg PUBLIC "-//W3C//DTD SVG 1.1//EN" "http://www.w3.org/Graphics/SVG/1.1/DTD/svg11.dtd">
<!-- Creator: CorelDRAW 2021 (64-Bit) -->
<svg xmlns="http://www.w3.org/2000/svg" xml:space="preserve" width="0.666669in" height="0.353142in" version="1.1" style="shape-rendering:geometricPrecision; text-rendering:geometricPrecision; image-rendering:optimizeQuality; fill-rule:evenodd; clip-rule:evenodd"
viewBox="0 0 666.67 353.14"
 xmlns:xlink="http://www.w3.org/1999/xlink"
 xmlns:xodm="http://www.corel.com/coreldraw/odm/2003">
 <defs>
  <style type="text/css">
   <![CDATA[
    .fil0 {fill:#ED3237}
   ]]>
  </style>
 </defs>
 <g id="Layer_x0020_1">
  <metadata id="CorelCorpID_0Corel-Layer"/>
  <path class="fil0" d="M58 84.47c-7.42,-5.19 -22.19,0.28 -14.98,11.3 5.07,8.1 13.93,2.05 11.26,14.05 -0.83,3.67 -3.47,6.98 -8.28,8.74 -4.16,1.63 -8.65,2.96 -13.49,2.96 -6.91,0 -12.09,-0.97 -15.79,-2.74 -4.37,-2.09 -5.04,-3.61 -6.32,-9.7 2.86,-0.23 4.62,1.52 6.28,2.74 2.37,1.77 5.88,1.19 8.41,0.02 8.73,-4.09 6.31,-20.48 -5.04,-20.48 -5.05,0 -10.14,1.77 -13.28,6.25 -3.16,4.49 -3.81,10.17 -3.81,15.95 0,4.74 1.21,8.58 3.61,12.05 5.21,7.62 13.76,12.35 22.67,12.35 15.58,0 28.09,-9.07 32.7,-24.83 2.21,-7.58 3.16,-23.65 -3.93,-28.65zm200.09 20.04l0.07 0.07c19.51,23.28 41.98,23.47 66.44,8.26 1.52,2.14 3.93,3.54 6.67,3.54 2.68,0 5.05,-1.33 6.58,-3.4 24.37,15.07 46.79,14.82 66.25,-8.39l0.05 -0.07 -0.05 -0.04c-9.88,-9.61 -19.9,-14.38 -30.04,-15.02 4.95,-6.89 7.98,-15.81 8.79,-27.1l0 -0.09 -0.07 0c-10.37,-1.02 -19,0.54 -26.14,4.31 -1.9,-4.54 -6.46,-7.63 -11.34,-8.4 -2.42,-7.32 -7.14,-14.46 -14.54,-21.39l-0.07 -0.05 -0.05 0.05c-7.32,6.98 -11.98,14.16 -14.31,21.54 -4.65,0.91 -8.91,3.91 -10.72,8.26 -7.14,-3.8 -15.79,-5.33 -26.16,-4.31l-0.07 0 0.03 0.09c0.78,11.28 3.81,20.21 8.79,27.1 -10.16,0.65 -20.19,5.41 -30.07,15.02l-0.04 0.04zm127.99 0.93l0 0 0.02 0.04 -0.02 0.06c-14.72,16.93 -31.85,15.63 -50.5,2.69l-0.06 -0.02 0.06 -0.05 0.09 -0.07c13.48,-1.33 24.56,-5.21 32.6,-12.28 6.02,1.02 11.95,4.14 17.81,9.63l0 0zm-28.88 -30.58l0 0c3.79,-1.14 8.02,-1.57 12.84,-1.2l0.04 0 0 0.07c-0.58,6.46 -2.21,11.8 -4.8,16.14 -0.13,0.24 -0.25,0.47 -0.41,0.7l-0.02 0.07c-0.42,0.63 -0.84,1.23 -1.28,1.81l0 0.02c-0.11,0.13 -0.23,0.28 -0.35,0.44l-0.17 0.21c-0.11,0.13 -0.22,0.28 -0.35,0.41l-0.02 0.02c-0.17,0.21 -0.35,0.42 -0.51,0.61l-0.02 0.02c-0.11,0.13 -0.23,0.28 -0.35,0.39l-0.19 0.21 -0.02 0.02 -0.37 0.37 -0.19 0.21 0 0c-0.14,0.11 -0.26,0.26 -0.39,0.37l0 0 -0.21 0.19 -0.3 0.28 -0.17 0.17 -0.35 0.3 -0.21 0.18 -0.02 0.02 -0.37 0.31 -0.02 0.02 -0.21 0.18 -0.02 0 -0.35 0.28 -0.17 0.12 -0.35 0.28 0 0 -0.23 0.16 -0.05 0.04 -0.37 0.26 -0.02 0.02 -0.24 0.17 -0.02 0 -0.37 0.26 -0.24 0.17 -0.35 0.22 -0.32 0.19 -0.3 0.19 -0.37 0.23 -0.33 0.18 -0.39 0.21 -0.24 0.11 -0.47 0.26 -0.23 0.12 -0.44 0.24 -0.28 0.11 -0.44 0.21 -0.07 0.05c0,0 0,-0.02 0.02,-0.02l-0.14 0.07 0.11 -0.04c-3.76,1.72 -8.07,2.9 -12.81,3.6l-0.07 0 -0.07 0.02 -0.1 0 -0.23 0.05 -0.07 0 0 0 -0.37 0.04 -0.09 0.02 -0.07 0 -0.07 0.02 -0.09 0 0 0 -0.07 0.02 -0.07 0 -0.09 0 -0.6 0.1 -0.09 0 0 0 -0.07 0 -0.07 0.02 -0.56 0.04 -0.07 0.02 -0.09 0 -0.17 0.02 -0.07 0 -0.63 0.07 -0.09 0 -0.07 0 -0.09 0.02 -0.72 0.05 -0.07 0 -0.07 0.02 -0.07 0 0.02 -0.07c0,-0.02 0.02,-0.07 0.02,-0.09 10.81,-10.21 20.88,-20.42 22.9,-30.63l-0.01 0 0 0zm-26.46 -27.39l0 0 0.05 -0.05 0.04 0.05c3.68,3.61 6.52,7.26 8.56,11 -3.28,0.86 -6.3,2.93 -8.25,6.63 -2.07,-3.86 -5.26,-5.98 -8.73,-6.77 2,-3.67 4.74,-7.3 8.33,-10.86l0 0zm-9.98 19.81l0 0c5.19,0 7.77,2.44 10.38,7.28 2.58,-4.83 5.16,-7.28 10.35,-7.28 5.72,0 10.37,4.35 10.37,9.72 0,9.7 -10.37,19.4 -20.72,29.12 -10.37,-9.72 -20.72,-19.42 -20.72,-29.12 0,-5.37 4.62,-9.72 10.35,-9.72l0 0zm-28.56 6.37l0 0c4.82,-0.37 9.07,0.07 12.87,1.2 2,10.21 12.06,20.4 22.88,30.6 0,0.06 0.02,0.08 0.02,0.12l0.02 0.07 -0.05 0 -0.09 -0.02 -0.07 0 -0.66 -0.05 -0.07 0 -0.09 -0.02 0 0 -0.07 0 -0.1 0 -0.54 -0.07 -0.09 0 -0.07 0 -0.17 -0.02 -0.09 0 -0.07 -0.03 -0.56 -0.05 -0.07 -0.02 0 0 -0.14 0 -0.02 0 -0.07 -0.02 -0.07 0 -0.47 -0.07 -0.09 0 -0.23 -0.02 -0.07 -0.02 -0.17 -0.02 -0.07 0 -0.07 0 -0.17 -0.02 -0.07 -0.02 -0.07 0 -0.23 -0.06 -0.1 0 -0.07 -0.02 -0.07 0c-4.67,-0.7 -8.91,-1.83 -12.6,-3.53l-0.08 0 -0.04 -0.02 -0.09 -0.05 -0.05 -0.03 -0.04 -0.02 -0.42 -0.2 0.72 0.32 -1.72 -0.81 -0.02 -0.02 -0.28 -0.15 -0.44 -0.22 -0.35 -0.21 0.07 0.05 -0.09 -0.05 0.02 0 -0.23 -0.12 -0.47 -0.28 -0.18 -0.11c-0.14,-0.09 -0.3,-0.19 -0.47,-0.3l-0.16 -0.1 -0.47 -0.3 -0.17 -0.11 -0.46 -0.32 -0.14 -0.1c-0.16,-0.11 -0.33,-0.23 -0.47,-0.35l-0.16 -0.11 -0.42 -0.31 -0.2 -0.18 -0.42 -0.32 -0.14 -0.14c-0.14,-0.11 -0.28,-0.24 -0.42,-0.35l-0.14 -0.15 -0.4 -0.35 -0.16 -0.14c-0.12,-0.11 -0.24,-0.23 -0.38,-0.37l-0.21 -0.19 -0.3 -0.32 -0.2 -0.21 -0.28 -0.3 -0.26 -0.28 -0.26 -0.28 -0.26 -0.3 -0.21 -0.26 -0.23 -0.3 -0.25 -0.3 -0.26 -0.35 -0.04 -0.07 -0.15 -0.19 -0.26 -0.32 -0.02 -0.04 -0.13 -0.21 -0.03 0 -0.25 -0.4 -0.14 -0.2c-0.09,-0.12 -0.17,-0.26 -0.26,-0.4l-0.14 -0.2c-0.12,-0.21 -0.26,-0.42 -0.38,-0.63 -2.58,-4.35 -4.21,-9.68 -4.76,-16.14l0 -0.07 0.02 0 -0.02 0 0 0zm16.63 27.21l0 0 -0.04 -0.02 -0.14 -0.07 0.18 0.09zm-32.67 4.58l0 0c5.86,-5.48 11.79,-8.61 17.81,-9.63 8.05,7.07 19.12,10.95 32.6,12.28l0.1 0.07 0.04 0.05 -0.04 0.02c-18.66,12.94 -35.77,14.23 -50.52,-2.7l-0.02 -0.05 0.02 -0.04 0 0 0 0zm310.92 -6.44c-53.57,-59.46 -148.32,-99 -256.28,-99 -107.95,0 -202.69,39.54 -256.25,99 62.68,-48.16 154.26,-78.55 256.25,-78.55 102,0 193.58,30.39 256.28,78.55zm-223.76 126.23c-1.2,3.88 -2.11,6.65 -6.3,11.09 5.21,6.11 12.41,8.91 19.25,8.49 8.49,-0.54 16.39,-6.03 19.28,-16.35 -5.37,2.83 -12.69,4.67 -19.28,3.97 -5.28,-0.54 -10.07,-2.67 -12.96,-7.21l0 0zm250.54 -31.62c1.16,-5.28 5.95,-15.63 12.09,-15.63 4.11,0 9.52,4.5 16.72,4.5 11.19,0 19.17,-6.89 24.01,-24.7 -2.42,1.6 -5.17,2.41 -8.22,2.41 -4.19,0 -8.88,-1.37 -14.14,-4.16 -3.51,-1.85 -6.91,-4.16 -10.18,-6.93 -2.4,4.39 -7.12,9.89 -14.12,16.37 -2.21,2.07 -5.37,4.91 -9.53,8.4l0 48.83c2.67,-1.18 5.86,-2.88 8.25,-3.74 9.56,-3.37 34.37,-4.05 35.49,9.77 2.23,27.63 -45.14,28.74 -64.7,15.44l11.39 -25.97c-3.11,-8.8 -11.44,-19.42 -20.97,-23.39 -12.77,-5.35 -29.84,-7.74 -43.7,-1.98 -5.72,-4.42 -13.81,-7.56 -15.47,-12.59 1.07,-0.76 7.72,-3.51 11.37,-2.81 5.72,1.09 12.93,4.28 19.81,5.12 5.07,0.6 9.49,-0.33 14.07,-4.7 4.09,-3.86 7.53,-10.81 9.92,-20.07 -2.39,1.6 -5.26,2.41 -8.53,2.41 -4.16,0 -8.86,-1.37 -14.12,-4.17 -3.52,-1.85 -6.91,-4.16 -10.19,-6.93 -2.19,4.22 -8.88,10.86 -20.04,20.02 -3.52,2.77 -8.65,6.77 -15.44,11.91 9.14,4.23 11.33,9.63 16.52,18.3 -1.21,1.03 -2.51,1.93 -3.61,3.05 -11.61,11.86 -14.65,23.16 -14.89,39.88 -0.14,10.66 3.39,20.43 10.19,29.47 1.63,2.14 3.26,4.02 4.85,5.58 10.56,10.3 22.54,6.85 31.31,-4.26 5.49,-6.96 7.74,-14.46 7.74,-22.58 0,-7.39 -0.51,-14.6 -4.79,-19.6 -5.43,-6.39 -16.24,-8.7 -23.73,-1.77 -8.91,8.21 -7.49,21.33 5.49,21.46 1.51,0.02 3.3,-0.58 5.93,-2.18 3.68,-4.28 6.93,-3.98 7.61,-3.98 4.3,0 9.77,7.12 3.3,11.52 -2.84,2.3 -8.84,5.46 -18.12,5.39 -9.51,-0.09 -19.74,-10.91 -19.74,-19.51 0,-8.09 2.68,-14.35 7.05,-18.74 5.26,-5.1 13.67,-9.17 25.07,-9.17 13.58,0 23.88,3.67 31.11,11.14 2.19,2.32 5.32,5.07 7.54,10.16l-13.82 34.33c2.87,3.46 7.14,6.65 14.82,9.6 7.67,2.89 14.46,4.35 20.37,4.35 31.07,0 54.21,-25.07 54.21,-57.54 0,-27.19 -23.42,-45.37 -48.21,-32.32l0.01 0 0 0zm-598.94 -15.12c5.79,0 10.56,3.54 16.51,3.54 11.07,0 19,-6.89 23.77,-24.72 -2.4,1.63 -5.1,2.44 -8.09,2.44 -4.16,0 -8.81,-1.39 -14.03,-4.16 -3.44,-1.86 -6.83,-4.16 -10.07,-6.95 -3.07,5.56 -8.89,12.17 -17.42,19.79 -1.3,1.16 -3.16,2.68 -5.58,4.51l0 65.98c1.74,9.94 3.4,17.37 4.93,22.23 5.26,14.58 12.37,21.85 21.35,21.85 8.76,0 15.23,-6.23 19.39,-18.74 2.84,-8.56 4.26,-17.93 4.26,-28.11 0,-11.82 0.2,-20.38 -1.33,-25.7 -2.96,-8.61 -5.68,-11.65 -14.31,-12.09 -15.69,-0.81 -21.32,17.65 -13.35,29.49 2.17,3.18 5.17,4.86 10.86,4.86 -2.21,-10.81 12.96,-8.09 13.89,-4.12 2.4,10.35 -7.19,22.23 -17.11,22.23 -8.54,0 -15.3,-7.74 -18.37,-16.06 -1.98,-5.57 -2.96,-14.7 -2.96,-27.44 0,-6.93 0.15,-14.05 1.33,-19.23 1.19,-5.19 3.7,-9.11 6.33,-9.58l0 0 0 0zm156.57 112.79c-1.21,0 -2.67,0.07 -4.26,0.24 -8.32,0.83 -20.26,4.19 -20.26,13.02 0,8.83 11.72,11.76 20.26,8.23 2.3,-0.95 4.4,-2.39 5.95,-4.32 5.77,-7.21 11.09,-5.93 16.37,-3.91 -2.58,13.23 -11.63,20.3 -22.32,22.71 -12.56,2.87 -27.4,-0.67 -36.74,-8.13 -5.47,-4.37 -12.07,-11.81 -19.77,-20.49 1.98,-2.3 4.6,-5.2 7.88,-8.67 2.19,-2.77 3.28,-6.14 3.28,-10.07l0 -70.84c0,-11.14 -10.81,-20.67 -22.68,-20.67 -5.97,0 -14.28,1.09 -19.35,4.83 1.26,-5.75 5.63,-14.77 12.47,-14.77 4.58,0 8.65,3.58 15.44,3.58 10.95,0 19.04,-6.89 24.3,-24.72 -2.41,1.63 -5.26,2.44 -8.53,2.44 -4.17,0 -8.89,-1.39 -14.14,-4.16 -3.49,-1.86 -6.89,-4.16 -10.19,-6.95 -3.07,5.79 -8.86,12.39 -17.39,19.79 -1.33,1.16 -3.3,2.68 -5.93,4.51l0 49.4c8.11,-4.87 14.23,-7.3 18.39,-7.3 8.12,0 14.03,5.39 17.74,12.11l0 47.53c0,9.49 -3.72,17.26 -11.16,23.26 -3.95,3.26 -9.53,7.07 -16.76,11.46 0,4.87 6.37,12.75 19.06,23.61 15.56,13.44 31.42,20.15 47.63,20.15 5.93,0 11.39,-0.77 16.44,-2.35 6.86,-2.14 12.88,-5.77 18.07,-10.84 8.09,-7.88 12.14,-17.02 12.14,-27.44 0,-15.48 -13,-21.23 -25.96,-21.23l0 0zm118.37 -131.65c-4.16,0 -8.86,-1.4 -14.14,-4.17 -3.48,-1.85 -6.89,-4.16 -10.18,-6.95 -2.4,4.4 -7.12,9.91 -14.12,16.37 -2.19,2.09 -5.37,4.93 -9.54,8.39l0 0.49 -0.09 0.1 0 48.83c2.68,-1.18 5.86,-2.88 8.28,-3.74 9.56,-3.37 34.37,-4.05 35.49,9.77 0.11,1.67 0.07,3.26 -0.14,4.77 -3.95,22.32 -46.09,22.49 -64.37,10.19l11.18 -25.49 -0.04 -0.21 0.16 -0.37c-3.11,-8.79 -11.46,-19.39 -20.97,-23.39 -12.77,-5.32 -29.83,-7.72 -43.72,-1.97l-0.43 -0.33c-5.54,-4.11 -12.98,-7.16 -14.89,-11.81 1.61,-0.93 7.7,-3.33 11.12,-2.68 1.19,0.21 2.44,0.54 3.77,0.91 4.96,1.42 10.61,3.56 16.05,4.21 5.09,0.6 9.51,-0.32 14.06,-4.7 4.09,-3.86 7.54,-10.81 9.96,-20.07l-0.07 0.04 0.16 -0.63c-2.41,1.62 -5.25,2.44 -8.53,2.44 -4.16,0 -8.88,-1.4 -14.14,-4.16 -3.49,-1.86 -6.88,-4.16 -10.19,-6.96 -1.16,2.26 -3.61,5.19 -7.3,8.84 -3.28,3.19 -7.51,6.91 -12.72,11.19 -3.51,2.79 -8.67,6.76 -15.44,11.92l0.39 0.19 -0.49 0.37c9.03,4.19 11.28,9.5 16.3,17.98 -1.11,0.93 -2.3,1.76 -3.32,2.81 -8.24,8.42 -12.17,16.59 -13.82,26.61 -0.74,4.23 -1.07,8.79 -1.14,13.84 -0.16,10.65 3.39,20.42 10.19,29.46 1.63,2.14 3.26,4.02 4.83,5.58 4.91,4.79 10.14,6.61 15.21,6.07 5.81,-0.63 11.42,-4.4 16.12,-10.33 4.02,-5.11 6.3,-10.53 7.23,-16.28 0.39,-2.26 0.58,-4.53 0.58,-6.86 0,-7.41 -0.51,-14.6 -4.76,-19.63 -4.4,-5.19 -12.33,-7.68 -19.17,-4.74 -1.61,0.69 -3.17,1.67 -4.58,2.97 -3.16,2.94 -5.02,6.5 -5.54,9.84 -1.16,6.09 2.09,11.74 10.12,12.19 0.26,0.02 0.54,0.02 0.81,0.02 1.53,0.02 3.3,-0.58 5.93,-2.19 3.67,-4.28 6.95,-3.98 7.6,-3.98 3.04,0 6.65,3.53 6.26,7.16 -0.3,1.33 -1.16,2.63 -2.84,3.77 -2.81,2.3 -8.72,5.39 -17.77,5.39l-0.35 0c-9.52,-0.09 -19.77,-10.91 -19.77,-19.49 0,-1.86 0.14,-3.63 0.42,-5.28 0.95,-5.32 3.28,-9.62 6.53,-12.91 3.21,-3.11 7.63,-5.83 13.17,-7.51 3.51,-1.05 7.49,-1.65 11.91,-1.65 13.57,0 23.89,3.67 31.11,11.14 2.16,2.3 5.28,5 7.46,10l-13.63 33.93 0.09 0.09 -0.19 0.47c2.83,3.46 7.14,6.65 14.79,9.6 7.68,2.89 14.46,4.35 20.37,4.35 27.37,0 48.6,-19.46 53.26,-46.31 0.05,-0.28 0.09,-0.58 0.15,-0.86l0 0c0.6,-3.53 0.9,-7.18 0.9,-10.93 0,-27.19 -23.37,-45.37 -48.13,-32.37 1.35,-5.4 6.02,-15.02 11.93,-15.02 4.11,0 9.53,4.49 16.74,4.49 11.17,0 19.17,-6.89 23.98,-24.7l-0.07 0.05 0.16 -0.63c-2.39,1.63 -5.14,2.44 -8.2,2.44l0 -0.01 0 0zm106.53 30.17c-6.79,-0.68 -14.14,0.3 -20.11,2.54 -0.86,0.32 -1.7,0.67 -2.49,1.05 0.44,-2.03 1.3,-4.46 2.49,-6.8 2.21,-4.3 5.56,-8.2 9.44,-8.2 4.56,0 10.44,3.69 16.31,3.69 9.79,0 16.95,-6.07 21.79,-20.72 0.46,-1.37 0.88,-2.84 1.3,-4.37 -0.42,0.33 -0.86,0.65 -1.3,0.93 -2.26,1.46 -4.68,2.19 -7.23,2.19 -4.17,0 -8.76,-1.52 -13.8,-4.51 -2.62,-1.63 -5.93,-4.05 -9.85,-7.31 -2.42,4.7 -7.12,10.26 -14.14,16.84 -0.79,0.77 -1.58,1.61 -2.51,2.54 -1.61,1.65 -3.58,3.61 -6.37,5.86l0 44.49c1.77,-1.04 3.95,-1.85 6.37,-2.49 14.21,-3.61 36.89,0.21 35.65,15.66 -1.12,14.09 -18.25,22.97 -35.65,23.3 -13.56,0.26 -27.28,-4.69 -33.72,-16.44 4.81,-6.46 8.69,-12.26 10.67,-16.3 1.95,-4.05 2.96,-7.46 2.96,-10.23 0,-14.31 -8.28,-20.98 -18.24,-22.1 -8.56,-0.97 -18.18,1.22 -23.14,4.37 1.28,-5.86 5.17,-15.32 11.91,-15.32 4.88,0 8.7,3.58 15.56,3.58 11.11,0 18.95,-7.01 23.72,-24.35 -2.42,1.61 -5.11,2.42 -8.11,2.42 -4.16,0 -8.81,-1.52 -14.03,-4.46 -3.44,-1.96 -6.83,-4.4 -10.07,-7.35 -2.19,4.35 -6.79,9.79 -13.8,16.2 -2.2,2.1 -5.25,4.74 -9.2,7.98l0 45.54c6.67,-2.49 14.14,-4.56 21.88,-3.86 18.39,1.67 11.07,15.67 0.15,20.6 -1.03,0.47 -2.19,0.91 -3.45,1.35 -4.39,1.49 -10.28,2.79 -17.6,3.86 3.95,12.95 11.14,23.26 21.53,30.91 10.4,7.63 22.07,11.44 34.98,11.44 2.77,0 5.44,-0.18 8,-0.58 13.52,-2.04 24.33,-9.48 32.42,-22.32 8.91,-13.79 14.28,-33.39 9.74,-49.98 -3.37,-12.4 -11.19,-18.54 -22.05,-19.63l0 0.01 0 0zm89.91 -17.19c0,-2.06 -1.28,-5.67 -9.61,-10.77 -14.67,-9.02 -22.23,-13.67 -22.65,-13.91 -5.93,4.63 -12.07,9.74 -18.42,15.28 -5.93,5.28 -9.89,8.75 -11.81,10.4 -0.7,0.58 -1.14,0.95 -1.33,1.07l1 4.51 0.33 -0.19c14.58,-8 32.3,-4.65 44.46,5.56 9.51,7.98 13.02,19.51 13.02,28.3 0,7.19 -5.69,13.44 -17.1,18.77 -11.36,5.33 -17.07,9.95 -17.07,13.88 0,7.87 4.44,15.33 13.3,22.4 8.86,7.04 13.51,12.1 13.95,15.09 2.42,0 5.49,-1.62 9.21,-4.86 3.7,-3.21 2.7,-7.07 2.7,-11.44l0 -94.1 0 0 0 0zm-5.98 75.81l-0.09 -17.05c-2.58,0.4 -7.35,2.31 -7.86,6.07 -0.21,4.89 3.63,9.82 7.95,10.98l0 0 0 0z"/>
 </g>
</svg>
